<svg xmlns="http://www.w3.org/2000/svg" viewBox="0 0 128 154.13">
  <rect width="128" height="154.13" rx="22" fill="#0f1e3d"/>
  <g fill="#faf7f2" transform="translate(0 0)">
    <path d="M33.19,54.78l-7.57,4.25v-17.58c2.48-1.44,5.16-3.48,7.81-4.55,3.76-1.53,5.48.05,5.83,3.91.49,5.48-1.31,10.92-6.06,13.96Z"/>
    <path d="M56.63.73L9.39,27.67C3.58,30.98,0,37.15,0,43.83v59.55c0,4.2,4.54,6.83,8.19,4.75l47.26-27.03c5.79-3.31,9.37-9.47,9.37-16.15V5.48c0-4.2-4.53-6.83-8.18-4.75ZM46.56,47.91c-1.7,5.47-5.38,11.27-9.88,14.84-3.23,2.56-7.47,4.46-11.03,6.55l-.08,16.43-8.9,5.1v-54.49l17.97-10.37c15.14-6.18,14.85,12.47,11.92,21.93Z"/>
    <path d="M125.21,114.03l-48.92-28.87c-4.87-2.88-10.92-2.9-15.82-.06l-48.68,28.28c-3.75,2.18-3.76,7.59-.03,9.79l48.94,28.8c4.87,2.87,10.9,2.88,15.79.05l48.69-28.21c3.75-2.17,3.77-7.58.04-9.79ZM100.73,123.41l-23.45-14.17,7.55,17.14-5.05,2.95-27.1-5.82,23.41,14.3-8.39,4.88-39.52-24.21,8.7-5.06,35.19,7.53-10.94-21.72,8.16-4.82,39.51,24.29-8.06,4.71Z"/>
  </g>
</svg>
