<?xml version="1.0" encoding="UTF-8"?>
<svg id="Camada_2" data-name="Camada 2" xmlns="http://www.w3.org/2000/svg" viewBox="0 0 128 154.13">
  <g id="Camada_1-2" data-name="Camada 1">
    <g>
      <g>
        <polyline points="80.85 29.2 74.22 25.37 74.21 28.67 80.84 32.49 80.85 29.2"/>
        <path d="M88.12,29.3l-3.82-2.21-.03,12.2,3.82,2.21.03-12.2M86.21,22.93c-.52-.3-.96-.36-1.33-.18-.37.18-.55.55-.55,1.11s.18,1.13.55,1.74c.37.61.81,1.06,1.33,1.36s.96.36,1.33.18.55-.55.55-1.1-.18-1.14-.55-1.74c-.37-.6-.81-1.05-1.33-1.35"/>
        <path d="M98.22,34.98c-.98-.56-1.73-.69-2.28-.37-.47.27-.83.72-1.07,1.35l-.06-2.8-3.58-2.07-.03,12.2,3.82,2.21.02-6.86c0-.41.07-.72.19-.93.13-.22.31-.33.54-.36.23-.02.5.05.81.23.48.28.85.67,1.12,1.16.26.5.4,1.05.39,1.65l-.02,6.86,3.82,2.21.02-7.77c0-.89-.15-1.77-.45-2.63-.3-.87-.73-1.66-1.28-2.37-.55-.71-1.21-1.29-1.96-1.72"/>
        <polyline points="111.98 47.17 105.35 43.34 105.34 46.64 111.97 50.47 111.98 47.17"/>
        <path d="M119.6,57.13c-.22-.12-.41-.27-.57-.45-.16-.18-.29-.37-.39-.58-.09-.21-.14-.43-.14-.66,0-.21.04-.38.13-.5s.23-.19.41-.2c.19-.01.43.04.73.16.15.06.3.11.43.16.14.05.27.09.4.13s.25.07.37.09c.11.02.22.04.32.06v1c0,.37-.09.64-.25.8s-.37.24-.63.23c-.26,0-.53-.1-.82-.27M120.14,47.64c-.99-.57-1.84-.89-2.53-.96s-1.24.07-1.63.4c-.39.33-.64.81-.75,1.44l3.44,2.38c.04-.22.13-.38.26-.46.13-.08.29-.11.49-.08.2.03.42.12.66.26s.46.3.64.48c.18.18.31.37.41.57.1.2.15.41.15.62v.04c0,.23-.08.37-.24.42-.16.05-.42,0-.78-.13-.36-.13-.83-.35-1.43-.64-.55-.28-1.06-.47-1.54-.58-.47-.11-.89-.11-1.24-.02s-.63.33-.83.69c-.2.36-.3.87-.3,1.54,0,.81.14,1.56.43,2.25.29.69.69,1.32,1.22,1.88.52.56,1.12,1.04,1.8,1.43.46.27.88.45,1.26.53.38.09.72.08,1.02-.03.3-.11.56-.33.78-.66l.08.04v1.72s3.57,2.06,3.57,2.06l.02-8.36c0-.56-.11-1.15-.34-1.77-.23-.62-.56-1.23-.99-1.85-.43-.61-.95-1.2-1.56-1.76-.61-.56-1.29-1.05-2.05-1.49"/>
        <polyline points="80.77 56.55 74.14 52.72 74.13 56.02 80.76 59.85 80.77 56.55"/>
        <path d="M88.44,65.9c-.35-.2-.65-.49-.9-.88-.25-.38-.45-.83-.58-1.34-.14-.51-.2-1.06-.2-1.65s.07-1.08.21-1.44c.14-.35.33-.58.59-.66.25-.09.56-.03.9.17s.65.49.9.87c.24.37.43.82.56,1.32.13.51.19,1.06.19,1.67s-.07,1.07-.2,1.43c-.13.36-.32.58-.56.67-.25.09-.54.03-.9-.17M86.88,51.92l-3.82-2.21-.05,16.27,3.78,2.18v-2.01s.1.06.1.06c.14.5.35.99.62,1.47.27.48.6.93.99,1.34.39.41.83.76,1.33,1.05.76.44,1.46.61,2.09.52.64-.09,1.14-.49,1.53-1.19.38-.7.58-1.76.58-3.16,0-1.48-.19-2.79-.59-3.94-.4-1.15-.91-2.12-1.54-2.92-.63-.79-1.29-1.39-2-1.8-.52-.3-.99-.47-1.38-.49-.4-.02-.73.07-.99.26-.27.2-.47.46-.61.8l-.06-.03.02-6.2"/>
        <path d="M100.71,73.13c-.34-.19-.62-.48-.86-.86-.24-.38-.42-.83-.55-1.36-.12-.53-.19-1.11-.19-1.74s.07-1.15.2-1.52c.13-.37.31-.6.55-.7.24-.09.53-.04.87.15s.61.47.85.84.42.81.54,1.33c.12.52.19,1.1.19,1.74s-.07,1.14-.2,1.52c-.13.38-.31.62-.55.73-.24.1-.52.06-.85-.13M100.73,63.83c-1.15-.67-2.14-.97-2.97-.92-.82.05-1.46.42-1.89,1.12s-.66,1.66-.66,2.92.21,2.47.64,3.67c.43,1.19,1.06,2.29,1.88,3.29.82,1,1.81,1.84,2.96,2.5s2.14.97,2.96.92c.82-.06,1.45-.43,1.88-1.12.44-.69.66-1.66.66-2.92s-.21-2.47-.64-3.67-1.05-2.29-1.87-3.29c-.82-1-1.8-1.83-2.95-2.5"/>
        <path d="M117.96,73.93l-3.92-2.27-.71,1.14c-.29.47-.57.98-.82,1.53-.04.08-.08.17-.12.25-.04-.13-.07-.26-.11-.39-.24-.83-.49-1.64-.76-2.44l-.65-1.93-4-2.31,2.97,7.66-3.19,4.44,3.91,2.26.83-1.44c.28-.49.54-1.01.79-1.58.04-.09.08-.18.12-.27.04.14.08.27.12.41.25.85.53,1.69.82,2.51l.85,2.42,3.97,2.29-3.2-8.12,3.1-4.16"/>
        <path d="M121.72,74.87v-.96s.4.23.4.23c.13.07.23.17.3.29.07.12.1.26.1.42s-.04.26-.1.3c-.07.04-.17.02-.3-.05l-.4-.23M122.28,73.53l-1.42-.82v3.41s.84.49.84.49v-1.14s.4.23.4.23l.41,1.38.94.54-.54-1.62c.14,0,.25-.06.33-.16.09-.11.14-.29.14-.53s-.04-.46-.13-.68c-.09-.22-.21-.43-.38-.62-.17-.19-.37-.35-.6-.49M122.04,77.8c-.42-.25-.81-.59-1.16-1.03-.35-.44-.63-.93-.84-1.45-.21-.52-.31-1.03-.31-1.52s.11-.88.32-1.16c.21-.28.49-.44.84-.48.35-.04.74.07,1.16.31s.82.59,1.17,1.04c.35.44.63.93.84,1.45.21.52.31,1.03.31,1.52s-.11.88-.32,1.16c-.21.28-.49.44-.84.48-.35.04-.74-.07-1.18-.32M122.06,71.44c-.44-.26-.86-.4-1.25-.43-.39-.03-.73.04-1.03.21-.29.17-.53.43-.69.78-.17.35-.25.78-.25,1.29s.08,1.03.24,1.58c.17.54.39,1.07.69,1.58.29.51.63.97,1.02,1.39.39.42.8.75,1.25,1.01s.86.4,1.25.43c.39.03.73-.04,1.03-.2s.53-.43.7-.78c.17-.35.25-.78.25-1.29s-.08-1.04-.25-1.58c-.17-.54-.39-1.07-.69-1.58-.29-.51-.64-.97-1.03-1.39-.39-.42-.81-.76-1.25-1.01"/>
      </g>
      <path d="M33.19,54.78l-7.57,4.25v-17.58c2.48-1.44,5.16-3.48,7.81-4.55,3.76-1.53,5.48.05,5.83,3.91.49,5.48-1.31,10.92-6.06,13.96Z"/>
      <path d="M56.63.73L9.39,27.67C3.58,30.98,0,37.15,0,43.83v59.55c0,4.2,4.54,6.83,8.19,4.75l47.26-27.03c5.79-3.31,9.37-9.47,9.37-16.15V5.48c0-4.2-4.53-6.83-8.18-4.75ZM46.56,47.91c-1.7,5.47-5.38,11.27-9.88,14.84-3.23,2.56-7.47,4.46-11.03,6.55l-.08,16.43-8.9,5.1v-54.49l17.97-10.37c15.14-6.18,14.85,12.47,11.92,21.93Z"/>
      <path d="M125.21,114.03l-48.92-28.87c-4.87-2.88-10.92-2.9-15.82-.06l-48.68,28.28c-3.75,2.18-3.76,7.59-.03,9.79l48.94,28.8c4.87,2.87,10.9,2.88,15.79.05l48.69-28.21c3.75-2.17,3.77-7.58.04-9.79ZM100.73,123.41l-23.45-14.17,7.55,17.14-5.05,2.95-27.1-5.82,23.41,14.3-8.39,4.88-39.52-24.21,8.7-5.06,35.19,7.53-10.94-21.72,8.16-4.82,39.51,24.29-8.06,4.71Z"/>
    </g>
  </g>
</svg>